<svg width="25" height="25" viewBox="0 0 25 25" fill="none" xmlns="http://www.w3.org/2000/svg">
<path d="M10.1074 12.5C10.1074 13.8214 11.1786 14.8926 12.5 14.8926C13.8214 14.8926 14.8926 13.8214 14.8926 12.5C14.8926 11.1786 13.8214 10.1074 12.5 10.1074C11.1786 10.1074 10.1074 11.1786 10.1074 12.5Z" fill="#999999"/>
<path d="M6.9046 8.26691C7.01962 7.95525 7.2031 7.67316 7.44152 7.4416C7.67307 7.20319 7.95498 7.0197 8.26683 6.90469C8.51974 6.80646 8.89969 6.68954 9.59949 6.65768C10.3565 6.62316 10.5835 6.61572 12.5 6.61572C14.4167 6.61572 14.6437 6.62297 15.4005 6.65749C16.1003 6.68954 16.4804 6.80646 16.7332 6.90469C17.045 7.0197 17.3271 7.20319 17.5585 7.4416C17.7969 7.67316 17.9804 7.95506 18.0956 8.26691C18.1938 8.51983 18.3107 8.89996 18.3426 9.59977C18.3771 10.3566 18.3846 10.5836 18.3846 12.5003C18.3846 14.4168 18.3771 14.6438 18.3426 15.4008C18.3107 16.1006 18.1938 16.4805 18.0956 16.7334C17.9804 17.0453 17.7971 17.3272 17.5587 17.5588C17.3271 17.7972 17.0452 17.9807 16.7334 18.0957C16.4804 18.1941 16.1003 18.311 15.4005 18.3429C14.6437 18.3774 14.4169 18.3846 12.5002 18.3846C10.5833 18.3846 10.3563 18.3774 9.59969 18.3429C8.89988 18.311 8.51974 18.1941 8.26683 18.0957C7.64084 17.8542 7.14607 17.3594 6.9046 16.7334C6.80637 16.4805 6.68945 16.1006 6.65741 15.4008C6.62289 14.6438 6.61564 14.4168 6.61564 12.5003C6.61564 10.5836 6.62289 10.3566 6.65741 9.59977C6.68926 8.89996 6.80618 8.51983 6.9046 8.26691ZM12.5 16.1858C14.5357 16.1858 16.186 14.5358 16.186 12.5001C16.186 10.4644 14.5357 8.81432 12.5 8.81432C10.4645 8.81432 8.81424 10.4644 8.81424 12.5001C8.81424 14.5358 10.4645 16.1858 12.5 16.1858ZM8.66852 9.52996C9.14421 9.52996 9.52988 9.1443 9.52988 8.6686C9.52988 8.19291 9.14421 7.80724 8.66852 7.80724C8.19283 7.80724 7.80716 8.19291 7.80716 8.6686C7.80735 9.1443 8.19283 9.52996 8.66852 9.52996Z" fill="#999999"/>
<path d="M5.69916 7.79839C5.52158 8.255 5.40028 8.77666 5.36537 9.54075C5.33047 10.3062 5.32227 10.5507 5.32227 12.5C5.32227 14.4493 5.33047 14.6938 5.36556 15.4593M5.69916 7.79839L5.23114 7.62244C5.23146 7.62158 5.23178 7.62073 5.2321 7.61988M5.69916 7.79839L5.23316 7.61716C5.2328 7.61807 5.23245 7.61897 5.2321 7.61988M5.69916 7.79839C5.87921 7.31945 6.16188 6.88572 6.52695 6.52714M5.2321 7.61988C5.03308 8.13249 4.9029 8.70789 4.86589 9.51793L4.86589 9.51797C4.83047 10.2948 4.82227 10.5483 4.82227 12.5C4.82227 14.4515 4.83046 14.7052 4.86608 15.4819L5.36556 15.4593M5.2321 7.61988C5.43734 7.07508 5.75874 6.58176 6.17334 6.17361M5.36556 15.4593L4.86609 15.4822M5.36556 15.4593C5.40028 16.2233 5.52177 16.745 5.69916 17.2016M4.86609 15.4822L19.6344 9.54075C19.6695 10.3062 19.6777 10.5507 19.6777 12.5C19.6777 14.4493 19.6695 14.6938 19.6342 15.4594C19.5995 16.2233 19.478 16.7452 19.3007 17.2016C19.1204 17.6805 18.8379 18.1145 18.4729 18.4729C18.1143 18.8381 17.6805 19.1206 17.2014 19.3008C16.745 19.4782 16.2231 19.5995 15.4593 19.6344C14.6936 19.6693 14.4493 19.6777 12.4998 19.6777C10.5505 19.6777 10.306 19.6693 9.54056 19.6344C8.77666 19.5995 8.25481 19.4782 7.79839 19.3008M4.86609 15.4822C4.90298 16.2937 5.03378 16.8696 5.23309 17.3827L5.69916 17.2016M4.86609 15.4822L7.61727 19.7669M5.69916 17.2016C6.07204 18.1658 6.83422 18.928 7.79839 19.3008M5.69916 17.2016L5.23282 17.382C5.6564 18.4772 6.52211 19.3431 7.61727 19.7669M7.79839 19.3008L7.61727 19.7669M7.79839 19.3008L7.61727 19.7669M20.1337 15.4821C20.1337 15.4822 20.1337 15.4822 20.1337 15.4822C20.0969 16.2923 19.9665 16.8679 19.7677 17.3803C19.5623 17.9247 19.2412 18.4183 18.8264 18.8264C18.4182 19.2413 17.9248 19.5625 17.3801 19.7679C16.8676 19.9667 16.292 20.0969 15.4821 20.1339L15.482 20.1339C14.705 20.1693 14.4518 20.1777 12.4998 20.1777C10.548 20.1777 10.2946 20.1693 9.51778 20.1339L9.51774 20.1339C8.70688 20.0969 8.1309 19.9664 7.61803 19.7672L20.1337 15.4821ZM20.1337 15.4821C20.1695 14.7052 20.1777 14.4514 20.1777 12.5C20.1777 10.5485 20.1695 10.2948 20.1339 9.51806L20.1337 15.4821ZM6.17334 6.17361C6.58163 5.75867 7.0752 5.4373 7.61987 5.23192C8.13232 5.03334 8.70764 4.9031 9.51785 4.86628L6.17334 6.17361ZM6.17334 6.17361C6.17228 6.17469 6.17121 6.17578 6.17015 6.17686L6.52695 6.52714M6.17334 6.17361C6.17442 6.17255 6.1755 6.17149 6.17658 6.17043L6.52695 6.52714M6.17334 6.17361L6.52695 6.52714M19.768 7.61976C19.9669 8.13231 20.0971 8.70768 20.1339 9.51785L9.51806 4.86627C10.2948 4.83066 10.5484 4.82227 12.5 4.82227C14.4518 4.82227 14.7052 4.83066 15.482 4.86608L15.4821 4.86608C16.2923 4.90309 16.8677 5.03332 17.3802 5.23215C17.9247 5.43747 18.4183 5.75856 18.8264 6.17357C19.2414 6.58167 19.5627 7.0752 19.768 7.61976ZM24.5 12.5C24.5 5.87364 19.1264 0.5 12.5 0.5C5.87364 0.5 0.5 5.87364 0.5 12.5C0.5 19.1264 5.87364 24.5 12.5 24.5C19.1264 24.5 24.5 19.1264 24.5 12.5Z" fill="#999999" stroke="black"/>
</svg>
